<mxfile host="app.diagrams.net" agent="Mozilla/5.0 (Windows NT 10.0; Win64; x64) AppleWebKit/537.36 (KHTML, like Gecko) Chrome/127.0.0.0 Safari/537.36 Edg/127.0.0.0" version="24.7.7">
  <diagram name="Page-1" id="xBGUBwGE6hRbUcBns2iN">
    <mxGraphModel dx="542" dy="681" grid="1" gridSize="10" guides="1" tooltips="1" connect="1" arrows="1" fold="1" page="1" pageScale="1" pageWidth="850" pageHeight="1100" math="0" shadow="0">
      <root>
        <mxCell id="0" />
        <mxCell id="1" parent="0" />
        <mxCell id="JDtejok1dp9pRjPnZoOh-22" value="" style="edgeStyle=orthogonalEdgeStyle;rounded=0;orthogonalLoop=1;jettySize=auto;html=1;" edge="1" parent="1" source="JDtejok1dp9pRjPnZoOh-20" target="JDtejok1dp9pRjPnZoOh-21">
          <mxGeometry relative="1" as="geometry" />
        </mxCell>
        <mxCell id="JDtejok1dp9pRjPnZoOh-20" value="Start" style="strokeWidth=2;html=1;shape=mxgraph.flowchart.start_1;whiteSpace=wrap;" vertex="1" parent="1">
          <mxGeometry x="150" y="60" width="100" height="60" as="geometry" />
        </mxCell>
        <mxCell id="JDtejok1dp9pRjPnZoOh-24" value="" style="edgeStyle=orthogonalEdgeStyle;rounded=0;orthogonalLoop=1;jettySize=auto;html=1;" edge="1" parent="1" source="JDtejok1dp9pRjPnZoOh-21" target="JDtejok1dp9pRjPnZoOh-23">
          <mxGeometry relative="1" as="geometry" />
        </mxCell>
        <mxCell id="JDtejok1dp9pRjPnZoOh-21" value="Sum = 0" style="whiteSpace=wrap;html=1;strokeWidth=2;" vertex="1" parent="1">
          <mxGeometry x="140" y="160" width="120" height="60" as="geometry" />
        </mxCell>
        <mxCell id="JDtejok1dp9pRjPnZoOh-26" value="" style="edgeStyle=orthogonalEdgeStyle;rounded=0;orthogonalLoop=1;jettySize=auto;html=1;" edge="1" parent="1" source="JDtejok1dp9pRjPnZoOh-23" target="JDtejok1dp9pRjPnZoOh-25">
          <mxGeometry relative="1" as="geometry" />
        </mxCell>
        <mxCell id="JDtejok1dp9pRjPnZoOh-23" value="Get a value &lt;br&gt;from the user" style="shape=parallelogram;html=1;strokeWidth=2;perimeter=parallelogramPerimeter;whiteSpace=wrap;rounded=1;arcSize=12;size=0.23;" vertex="1" parent="1">
          <mxGeometry x="145" y="260" width="110" height="80" as="geometry" />
        </mxCell>
        <mxCell id="JDtejok1dp9pRjPnZoOh-28" value="" style="edgeStyle=orthogonalEdgeStyle;rounded=0;orthogonalLoop=1;jettySize=auto;html=1;" edge="1" parent="1" source="JDtejok1dp9pRjPnZoOh-25" target="JDtejok1dp9pRjPnZoOh-27">
          <mxGeometry relative="1" as="geometry" />
        </mxCell>
        <mxCell id="JDtejok1dp9pRjPnZoOh-33" style="edgeStyle=orthogonalEdgeStyle;rounded=0;orthogonalLoop=1;jettySize=auto;html=1;entryX=1;entryY=0.5;entryDx=0;entryDy=0;" edge="1" parent="1" target="JDtejok1dp9pRjPnZoOh-23">
          <mxGeometry relative="1" as="geometry">
            <mxPoint x="370" y="300" as="targetPoint" />
            <mxPoint x="200" y="440" as="sourcePoint" />
            <Array as="points">
              <mxPoint x="320" y="440" />
              <mxPoint x="320" y="300" />
            </Array>
          </mxGeometry>
        </mxCell>
        <mxCell id="JDtejok1dp9pRjPnZoOh-25" value="Sum = sum + value" style="whiteSpace=wrap;html=1;strokeWidth=2;rounded=1;arcSize=12;" vertex="1" parent="1">
          <mxGeometry x="140" y="370" width="120" height="60" as="geometry" />
        </mxCell>
        <mxCell id="JDtejok1dp9pRjPnZoOh-30" value="" style="edgeStyle=orthogonalEdgeStyle;rounded=0;orthogonalLoop=1;jettySize=auto;html=1;" edge="1" parent="1" source="JDtejok1dp9pRjPnZoOh-27" target="JDtejok1dp9pRjPnZoOh-29">
          <mxGeometry relative="1" as="geometry" />
        </mxCell>
        <mxCell id="JDtejok1dp9pRjPnZoOh-27" value="Display the &lt;br&gt;output" style="shape=parallelogram;html=1;strokeWidth=2;perimeter=parallelogramPerimeter;whiteSpace=wrap;rounded=1;arcSize=12;size=0.23;" vertex="1" parent="1">
          <mxGeometry x="150" y="460" width="100" height="60" as="geometry" />
        </mxCell>
        <mxCell id="JDtejok1dp9pRjPnZoOh-29" value="Stop" style="strokeWidth=2;html=1;shape=mxgraph.flowchart.start_1;whiteSpace=wrap;" vertex="1" parent="1">
          <mxGeometry x="150" y="550" width="100" height="60" as="geometry" />
        </mxCell>
      </root>
    </mxGraphModel>
  </diagram>
</mxfile>
